Coordinates
version=1
nRows=21
nColumns=22
inDegrees=yes

Units are S.I. units (second, meters, Newtons, ...)
If the header above contains a line with 'inDegrees', this indicates whether rotational values are in degrees (yes) or radians (no).

endheader
time	pelvis_tilt	pelvis_list	pelvis_rotation	pelvis_tx	pelvis_ty	pelvis_tz	hip_flexion_r	hip_adduction_r	hip_rotation_r	knee_angle_r	ankle_angle_r	subtalar_angle_r	hip_flexion_l	hip_adduction_l	hip_rotation_l	knee_angle_l	ankle_angle_l	subtalar_angle_l	lumbar_extension	lumbar_bending	lumbar_rotation
      2.69000000	     -0.47681769	     -4.13415067	     -0.03425171	     -0.65774551	      0.98708044	     -0.31208309	     26.78789191	      5.89275072	     -4.52124574	    -28.63150001	      0.63229979	     -1.05018906	     -7.10576947	     -2.11404917	      1.36272230	    -43.15716661	     -3.95951367	     10.39788479	    -12.15547786	      6.65950209	     -5.65175674
      2.70000000	     -0.43792285	     -4.32869443	      0.15383974	     -0.64590442	      0.98909500	     -0.31124214	     25.93560380	      6.12404592	     -4.68387689	    -28.55678246	      1.40023267	     -1.37951172	     -5.50884131	     -2.63963952	      1.12427046	    -46.14971325	     -5.29054303	     10.37090514	    -12.12828853	      6.88557171	     -5.46144854
      2.71000000	     -0.38230904	     -4.54587459	      0.34463934	     -0.63424225	      0.99114826	     -0.31038788	     25.00687515	      6.39283517	     -4.83162655	    -28.35021155	      2.12380251	     -1.62816538	     -3.85829936	     -3.22721682	      0.85371462	    -49.05428289	     -6.27934020	     10.26885047	    -12.12653169	      7.11944234	     -5.20810162
      2.72000000	     -0.34923086	     -4.74277504	      0.52041710	     -0.62275273	      0.99314703	     -0.30951520	     24.07154671	      6.65867428	     -4.93904975	    -28.06595683	      2.82398595	     -1.87598542	     -2.13349258	     -3.81475775	      0.57127085	    -51.82166116	     -6.91056426	     10.03017247	    -12.10165331	      7.30909647	     -4.89433857
      2.73000000	     -0.22640411	     -4.98086711	      0.67904060	     -0.61135217	      0.99528709	     -0.30861355	     22.98646460	      6.99136868	     -5.00612111	    -27.66306531	      3.43660873	     -1.99517511	     -0.49282101	     -4.47157719	      0.26225983	    -54.38602947	     -7.16035491	      9.82021187	    -12.18378678	      7.53060905	     -4.50733837
      2.74000000	     -0.14686030	     -5.17256450	      0.81491610	     -0.60009062	      0.99731782	     -0.30771673	     21.93753963	      7.29282266	     -5.00787475	    -27.22557132	      4.02129805	     -2.15001506	      1.20936532	     -5.07772364	     -0.03439519	    -56.73452978	     -7.10980544	      9.30704021	    -12.21320345	      7.68546320	     -4.08896160
      2.75000000	      0.00222752	     -5.37413701	      0.91599774	     -0.58888852	      0.99942952	     -0.30680275	     20.78093342	      7.62522637	     -4.96045317	    -26.71306341	      4.53290557	     -2.23143665	      2.81302254	     -5.69225639	     -0.33678608	    -58.81319317	     -6.73435925	      8.85249723	    -12.32395576	      7.83687832	     -3.57600598
      2.76000000	      0.16364838	     -5.53400520	      0.97856226	     -0.57780194	      1.00149064	     -0.30586644	     19.61495608	      7.93037709	     -4.85142213	    -26.19924828	      5.04106632	     -2.31473201	      4.38567718	     -6.25552662	     -0.65468213	    -60.62242810	     -6.16461312	      8.13239439	    -12.45342411	      7.92691429	     -3.04964989
      2.77000000	      0.34359960	     -5.66648211	      1.00727963	     -0.56678899	      1.00352261	     -0.30494396	     18.41487067	      8.21471825	     -4.69873743	    -25.65082043	      5.50412969	     -2.37248860	      5.90157262	     -6.76590134	     -0.96369575	    -62.13762904	     -5.40410864	      7.41509124	    -12.60363428	      7.97679573	     -2.46008673
      2.78000000	      0.53023512	     -5.76120877	      0.99977044	     -0.55587743	      1.00547621	     -0.30403324	     17.21202780	      8.45940399	     -4.52437533	    -25.10226337	      5.94065797	     -2.41900322	      7.37179570	     -7.21106393	     -1.27395220	    -63.36059075	     -4.52885146	      6.61763112	    -12.76789929	      7.97475472	     -1.82415982
      2.79000000	      0.71127158	     -5.82222860	      0.95584125	     -0.54505033	      1.00733119	     -0.30312575	     16.01071600	      8.66882301	     -4.31933800	    -24.53772290	      6.35672912	     -2.45391800	      8.80209924	     -7.59416081	     -1.59075563	    -64.28770392	     -3.59410364	      5.82675174	    -12.92599997	      7.92722202	     -1.17815555
      2.80000000	      0.88756465	     -5.85079267	      0.88419392	     -0.53436266	      1.00905540	     -0.30225237	     14.83170169	      8.83764613	     -4.09242550	    -23.99359786	      6.76210683	     -2.48027648	     10.19704570	     -7.90018970	     -1.88699212	    -64.93252996	     -2.63422557	      5.06150966	    -13.09220435	      7.84032300	     -0.51103748
      2.81000000	      1.04873019	     -5.85685827	      0.78296771	     -0.52378595	      1.01062611	     -0.30139003	     13.67975817	      8.97528924	     -3.85133837	    -23.45810116	      7.14747624	     -2.49850242	     11.56145265	     -8.15008323	     -2.17878300	    -65.29915491	     -1.67632896	      4.38860133	    -13.24908314	      7.72218862	      0.17498633
      2.82000000	      1.20425383	     -5.83189109	      0.66819115	     -0.51333141	      1.01203697	     -0.30058465	     12.55993439	      9.06061488	     -3.64341373	    -22.95910069	      7.55381404	     -2.51216442	     12.88377836	     -8.32134565	     -2.44097645	    -65.39432816	     -0.73383455	      3.74715881	    -13.41228726	      7.56999053	      0.87335704
      2.83000000	      1.33059354	     -5.80489888	      0.52003986	     -0.50297620	      1.01325753	     -0.29977680	     11.47858266	      9.14087593	     -3.39104900	    -22.46088602	      7.92718926	     -2.52296539	     14.18579855	     -8.46038288	     -2.69831007	    -65.23330518	      0.17072782	      3.31824600	    -13.55312166	      7.41310540	      1.58565559
      2.84000000	      1.44931193	     -5.76591661	      0.35989933	     -0.49271311	      1.01430136	     -0.29900905	     10.42859750	      9.19053679	     -3.17008542	    -21.99449897	      8.32103326	     -2.53378918	     15.44094635	     -8.55312637	     -2.93564257	    -64.82048085	      1.04805732	      2.95421223	    -13.69760034	      7.24302186	      2.30272348
      2.85000000	      1.55975185	     -5.72227603	      0.19105502	     -0.48251140	      1.01517561	     -0.29828202	      9.39561823	      9.22381635	     -2.94331495	    -21.53539890	      8.71604356	     -2.54531297	     16.64614775	     -8.61247748	     -3.15567993	    -64.16599315	      1.87590415	      2.65444755	    -13.84165140	      7.07154183	      3.00047307
      2.86000000	      1.64841777	     -5.68940479	      0.01338500	     -0.47237816	      1.01583940	     -0.29757691	      8.40839831	      9.25449119	     -2.74227415	    -21.10712865	      9.11961612	     -2.56131298	     17.81951443	     -8.66381449	     -3.35811987	    -63.29252709	      2.66426309	      2.48891893	    -13.97399902	      6.91271085	      3.70049014
      2.87000000	      1.74179646	     -5.66467670	     -0.17512360	     -0.46229702	      1.01635582	     -0.29690512	      7.41855917	      9.28895942	     -2.49794389	    -20.67918615	      9.51404218	     -2.58034219	     18.92455636	     -8.70157932	     -3.54142955	    -62.20344256	      3.38283298	      2.35885153	    -14.12585270	      6.76630603	      4.40022146
      2.88000000	      1.81605104	     -5.65542011	     -0.35389483	     -0.45223110	      1.01666136	     -0.29627555	      6.45950971	      9.32595899	     -2.28858516	    -20.26574956	      9.92755752	     -2.60356735	     19.99478583	     -8.75098203	     -3.71830328	    -60.92682333	      4.05760972	      2.29513280	    -14.26120371	      6.64315727	      5.05024077
      2.89000000	      1.92127295	     -5.65991972	     -0.55044160	     -0.44219783	      1.01688469	     -0.29566023	      5.46410564	      9.37674832	     -2.00586764	    -19.84678409	     10.31074196	     -2.62955188	     20.95471274	     -8.80135117	     -3.88244672	    -59.44878162	      4.61860582	      2.23920352	    -14.45130915	      6.53296929	      5.72563769
